{
  "accessors": [
    {
      "bufferView": 2,
      "componentType": 5126,
      "count": 2834,
      "max": [
        9.759461402893066,
        9.904806137084961,
        40.438133239746094
      ],
      "min": [
        -9.624832153320313,
        -9.904703140258789,
        -35.259849548339844
      ],
      "type": "VEC3"
    },
    {
      "bufferView": 2,
      "byteOffset": 34008,
      "componentType": 5126,
      "count": 2834,
      "max": [
        0.9999858736991882,
        0.9995904564857483,
        1.0
      ],
      "min": [
        -0.9999964833259583,
        -0.9995904564857483,
        -1.0
      ],
      "type": "VEC3"
    },
    {
      "bufferView": 1,
      "componentType": 5126,
      "count": 2834,
      "max": [
        0.7141708731651306,
        0.9746977090835571
      ],
      "min": [
        0.5201213359832764,
        0.21854707598686218
      ],
      "type": "VEC2"
    },
    {
      "bufferView": 0,
      "componentType": 5125,
      "count": 11274,
      "type": "SCALAR"
    }
  ],
  "asset": {
    "extras": {
      "author": "ptitposom (https://sketchfab.com/ptitposom)",
      "license": "CC-BY-4.0 (http://creativecommons.org/licenses/by/4.0/)",
      "source": "https://sketchfab.com/3d-models/unicorn-horn-60f20dd498d243f99c31800fd4eb1c1f",
      "title": "Unicorn horn"
    },
    "generator": "Sketchfab-13.52.1",
    "version": "2.0"
  },
  "bufferViews": [
    {
      "buffer": 0,
      "byteLength": 45096,
      "name": "floatBufferViews",
      "target": 34963
    },
    {
      "buffer": 0,
      "byteLength": 22672,
      "byteOffset": 45096,
      "byteStride": 8,
      "name": "floatBufferViews",
      "target": 34962
    },
    {
      "buffer": 0,
      "byteLength": 68016,
      "byteOffset": 67768,
      "byteStride": 12,
      "name": "floatBufferViews",
      "target": 34962
    }
  ],
  "buffers": [
    {
      "byteLength": 135784,
      "uri": "scene.bin"
    }
  ],
  "materials": [
    {
      "doubleSided": true,
      "name": "Material_2",
      "pbrMetallicRoughness": {
        "metallicFactor": 0.0,
        "roughnessFactor": 0.7885257473118872
      }
    }
  ],
  "meshes": [
    {
      "name": "Helix003_Material #2_0",
      "primitives": [
        {
          "attributes": {
            "NORMAL": 1,
            "POSITION": 0,
            "TEXCOORD_0": 2
          },
          "indices": 3,
          "material": 0,
          "mode": 4
        }
      ]
    }
  ],
  "nodes": [
    {
      "children": [
        1
      ],
      "matrix": [
        1.0,
        0.0,
        0.0,
        0.0,
        0.0,
        2.220446049250313e-16,
        -1.0,
        0.0,
        0.0,
        1.0,
        2.220446049250313e-16,
        0.0,
        0.0,
        0.0,
        0.0,
        1.0
      ],
      "name": "Sketchfab_model"
    },
    {
      "children": [
        2
      ],
      "matrix": [
        0.009999999776482582,
        0.0,
        0.0,
        0.0,
        0.0,
        0.0,
        0.009999999776482582,
        0.0,
        0.0,
        -0.009999999776482582,
        0.0,
        0.0,
        0.0,
        0.0,
        0.0,
        1.0
      ],
      "name": "111afcffeae24ea4befb3db95f158830.fbx"
    },
    {
      "children": [
        3,
        6,
        8
      ],
      "name": "RootNode"
    },
    {
      "children": [
        4
      ],
      "matrix": [
        -29.08647719990347,
        -5.518906457566863,
        -95.51711910171437,
        0.0,
        56.63930913109449,
        79.46723428563203,
        -21.83912397841966,
        0.0,
        77.11008775993375,
        -60.45246356562044,
        -19.98834696773717,
        0.0,
        407.6245422363281,
        590.38623046875,
        -100.54539489746094,
        1.0
      ],
      "name": "Light"
    },
    {
      "children": [
        5
      ],
      "matrix": [
        1.0,
        0.0,
        0.0,
        0.0,
        0.0,
        2.220446049250313e-16,
        1.0,
        0.0,
        0.0,
        -1.0,
        2.220446049250313e-16,
        0.0,
        0.0,
        0.0,
        0.0,
        1.0
      ],
      "name": "Object_4"
    },
    {
      "name": "Object_5"
    },
    {
      "children": [
        7
      ],
      "matrix": [
        -65.15581009765468,
        -44.527143038140764,
        -61.41704928909654,
        0.0,
        -32.40135466989878,
        89.5395708958271,
        -30.542085476036902,
        0.0,
        68.59207001076176,
        1.2755314797120858e-05,
        -72.76761921184276,
        0.0,
        735.88916015625,
        495.8309326171875,
        692.5791015625,
        1.0
      ],
      "name": "Camera"
    },
    {
      "name": "Object_7"
    },
    {
      "children": [
        9
      ],
      "matrix": [
        2.5399999618530273,
        0.0,
        0.0,
        0.0,
        -0.0,
        -4.138185194403211e-07,
        -2.5399999618529936,
        0.0,
        0.0,
        2.5399999618529936,
        -4.138185194403211e-07,
        0.0,
        -5.4023027420043945,
        98.49095153808594,
        -3.8058035373687744,
        1.0
      ],
      "name": "Helix003"
    },
    {
      "mesh": 0,
      "name": "Helix003_Material #2_0"
    }
  ],
  "scene": 0,
  "scenes": [
    {
      "name": "Sketchfab_Scene",
      "nodes": [
        0
      ]
    }
  ]
}
