# Blender 5.1.1
# www.blender.org
mtllib CatLoafBrown64.mtl
o CatLoafBrown64
v 0.000000 0.140591 -0.237456
v 0.000000 0.100589 -0.195805
v 0.000000 0.201073 -0.190811
v 0.000000 0.204542 -0.122918
v 0.000000 0.172921 -0.080424
v 0.000000 0.178910 0.088923
v 0.000000 0.097387 0.157919
v 0.000000 0.000000 -0.187660
v 0.000000 0.000000 0.147451
v -0.023883 0.137850 -0.226738
v -0.031640 0.213279 -0.137033
v -0.063498 0.242684 -0.153102
v -0.039585 0.207064 -0.179589
v -0.062336 0.155445 -0.178042
v -0.044125 0.108977 -0.181302
v -0.060955 0.197291 -0.138524
v -0.066378 0.135845 -0.127168
v -0.083194 0.000000 -0.113064
v -0.077989 0.113435 0.115704
v -0.060241 0.000000 0.115892
v -0.086597 0.173493 0.058360
v 0.000000 0.184649 -0.008385
v 0.023883 0.137850 -0.226738
v 0.031640 0.213279 -0.137033
v 0.063498 0.242684 -0.153102
v 0.039585 0.207064 -0.179589
v 0.062336 0.155445 -0.178042
v 0.044125 0.108977 -0.181302
v 0.060955 0.197291 -0.138524
v 0.066378 0.135845 -0.127168
v 0.083194 0.000000 -0.113064
v 0.077989 0.113435 0.115704
v 0.060241 0.000000 0.115892
v 0.086597 0.173493 0.058360
vn -0.0000 -0.0285 -0.9996
vn -0.0000 -0.4449 -0.8956
vn -0.0000 0.8054 -0.5927
vn -0.0000 0.9218 0.3877
vn -0.0000 0.9655 0.2606
vn -0.0000 0.8677 0.4970
vn -0.0000 0.2344 0.9721
vn -0.0000 -0.6641 -0.7476
vn -0.0000 -0.6560 0.7548
vn -0.5240 -0.1373 -0.8406
vn 0.0737 0.9033 0.4226
vn -0.4678 0.8829 -0.0396
vn -0.3618 0.7056 -0.6093
vn -0.9158 0.0215 -0.4010
vn -0.7391 -0.2721 -0.6162
vn -0.8825 0.3097 0.3539
vn -0.9832 0.1824 -0.0029
vn -0.7640 -0.6102 -0.2096
vn -0.7912 0.1964 0.5792
vn -0.6403 -0.6532 0.4042
vn -0.7653 0.6178 0.1808
vn -0.0000 0.9912 -0.1325
vn 0.5240 -0.1373 -0.8406
vn -0.0737 0.9033 0.4226
vn 0.4678 0.8829 -0.0396
vn 0.3618 0.7056 -0.6093
vn 0.9158 0.0215 -0.4010
vn 0.7391 -0.2721 -0.6162
vn 0.8825 0.3097 0.3539
vn 0.9832 0.1824 -0.0029
vn 0.7640 -0.6102 -0.2096
vn 0.7912 0.1964 0.5792
vn 0.6403 -0.6532 0.4042
vn 0.7653 0.6178 0.1808
vt 0.730470 0.179936
vt 0.633593 0.126641
vt 0.710397 0.045716
vt 0.683140 0.317329
vt 0.821894 0.291371
vt 0.895737 0.349163
vt 0.774079 0.415688
vt 0.660720 0.440366
vt 0.564017 0.004564
vt 0.564017 0.614776
vt 0.564017 0.476918
vt 0.850915 0.148148
vt 0.243599 0.126450
vt 0.519881 0.012110
vt 0.544262 0.346544
vt 0.256561 0.735147
vt 0.238855 0.895251
vt 0.071520 0.744635
vt 0.024034 0.547566
vt 0.183394 0.639042
vt 0.197210 0.311256
vt 0.553740 0.738122
vt 0.564017 0.126000
vt 0.564017 0.301256
vt 0.667643 0.476882
vt 0.743023 0.612779
vt 0.541914 0.927194
vt 0.266554 0.047080
vt 0.897292 0.866792
vt 0.769874 0.475709
vt 0.914061 0.455103
vt 0.045875 0.399892
vt 0.789059 0.872613
s 1
usemtl CatLoafBrown64_M
f 14/1/14 10/2/10 15/3/15
f 13/4/13 14/1/14 16/5/16
f 16/5/16 11/6/11 12/7/12
f 13/4/13 12/7/12 11/8/11
f 13/4/13 10/2/10 14/1/14
f 10/2/10 2/9/2 15/3/15
f 5/10/5 4/11/4 11/8/11
f 14/1/14 17/12/17 16/5/16
f 17/12/17 14/1/14 15/3/15
f 15/13/15 8/14/8 18/15/18
f 19/16/19 7/17/7 6/18/6
f 22/19/22 21/20/21 6/18/6
f 21/20/21 17/21/17 20/22/20
f 1/23/1 2/9/2 10/2/10
f 16/5/16 12/7/12 13/4/13
f 10/2/10 3/24/3 1/23/1
f 5/10/5 16/25/16 17/26/17
f 15/13/15 18/15/18 17/21/17
f 7/17/7 20/22/20 9/27/9
f 21/20/21 19/16/19 6/18/6
f 20/22/20 17/21/17 18/15/18
f 8/14/8 15/13/15 2/28/2
f 21/20/21 20/22/20 19/16/19
f 9/29/9 18/30/18 8/31/8
f 11/8/11 3/24/3 13/4/13
f 17/21/17 22/19/22 5/32/5
f 27/1/27 28/3/28 23/2/23
f 26/4/26 29/5/29 27/1/27
f 29/5/29 25/7/25 24/6/24
f 26/4/26 24/8/24 25/7/25
f 26/4/26 27/1/27 23/2/23
f 23/2/23 28/3/28 2/9/2
f 5/10/5 24/8/24 4/11/4
f 27/1/27 29/5/29 30/12/30
f 30/12/30 28/3/28 27/1/27
f 28/13/28 31/15/31 8/14/8
f 32/16/32 6/18/6 7/17/7
f 22/19/22 6/18/6 34/20/34
f 34/20/34 33/22/33 30/21/30
f 1/23/1 23/2/23 2/9/2
f 29/5/29 26/4/26 25/7/25
f 3/24/3 23/2/23 1/23/1
f 5/10/5 29/25/29 24/8/24
f 28/13/28 30/21/30 31/15/31
f 7/17/7 33/22/33 32/16/32
f 34/20/34 6/18/6 32/16/32
f 33/22/33 31/15/31 30/21/30
f 8/14/8 2/28/2 28/13/28
f 34/20/34 32/16/32 33/22/33
f 31/30/31 9/29/9 8/31/8
f 24/8/24 3/24/3 4/11/4
f 22/19/22 30/21/30 5/32/5
f 10/2/10 13/4/13 3/24/3
f 5/10/5 11/8/11 16/25/16
f 7/17/7 19/16/19 20/22/20
f 9/29/9 20/33/20 18/30/18
f 11/8/11 4/11/4 3/24/3
f 17/21/17 21/20/21 22/19/22
f 3/24/3 26/4/26 23/2/23
f 5/10/5 30/26/30 29/25/29
f 7/17/7 9/27/9 33/22/33
f 31/30/31 33/33/33 9/29/9
f 24/8/24 26/4/26 3/24/3
f 22/19/22 34/20/34 30/21/30
