# Blender 5.1.1
# www.blender.org
mtllib CatLoafGrey256.mtl
o CatLoafGrey256
v 0.000000 0.149519 -0.237125
v 0.000000 0.168078 -0.225087
v 0.000000 0.142965 -0.234360
v 0.000000 0.122472 -0.215426
v 0.000000 0.200911 -0.208661
v 0.000000 0.219421 -0.152579
v 0.000000 0.211969 -0.122918
v 0.000000 0.108864 -0.192820
v 0.000000 0.180348 -0.080424
v 0.000000 0.165576 0.128131
v 0.000000 0.195153 0.082733
v 0.000000 0.199708 0.016454
v 0.000000 0.104815 0.157919
v 0.000000 0.016213 -0.183508
v 0.000000 0.050478 -0.193072
v 0.000000 0.001476 -0.161196
v 0.000000 -0.000365 0.144623
v 0.000000 0.000747 -0.031769
v 0.000000 0.031007 0.158555
v 0.000000 -0.004449 0.104205
v 0.000000 0.002052 -0.145691
v -0.015794 0.160992 -0.225236
v -0.011201 0.149400 -0.234445
v -0.023764 0.145407 -0.222889
v -0.024724 0.132083 -0.215196
v -0.039190 0.150533 -0.211315
v -0.042785 0.214479 -0.174186
v -0.022848 0.217023 -0.174730
v -0.064462 0.230089 -0.144903
v -0.062465 0.194812 -0.142369
v -0.018866 0.220427 -0.152029
v -0.034862 0.212178 -0.128137
v -0.061632 0.249783 -0.154403
v -0.034522 0.190558 -0.201353
v -0.056308 0.158924 -0.189462
v -0.064389 0.166131 -0.169761
v -0.043823 0.135373 -0.199320
v -0.023791 0.111050 -0.190031
v -0.051752 0.124514 -0.171406
v -0.054797 0.189465 -0.124892
v -0.064962 0.145380 -0.141928
v -0.058836 0.159964 -0.109805
v -0.076821 0.102276 -0.122325
v -0.046658 0.040202 -0.173831
v -0.072830 0.044416 -0.141240
v -0.077596 0.184890 0.051188
v -0.097127 0.039961 -0.025867
v -0.096088 0.095846 -0.020670
v -0.069199 0.170683 -0.014780
v -0.073787 0.146795 -0.030707
v -0.085500 0.007577 -0.082719
v -0.085658 0.172602 0.013475
v -0.090250 0.142642 -0.009628
v -0.079479 0.028122 -0.138811
v -0.074086 0.006068 -0.138522
v -0.091711 0.036463 -0.093929
v -0.060926 0.023052 -0.175657
v -0.047106 0.000162 -0.170568
v -0.030285 0.013560 -0.182473
v -0.015115 0.017063 -0.180587
v -0.075809 0.175311 0.082293
v -0.077989 0.120862 0.115704
v -0.086984 0.009475 -0.019696
v -0.068018 0.025860 0.119824
v -0.094033 0.018619 0.056255
v -0.103376 0.054875 0.055175
v -0.103855 0.106736 0.055682
v -0.098051 0.156598 0.048833
v -0.027585 -0.006366 -0.137168
v -0.074674 0.000564 -0.007262
v -0.075276 0.002862 0.057419
v -0.047238 0.001185 0.115516
v -0.077954 0.006121 -0.039708
v -0.034229 0.000827 -0.074367
v 0.000000 0.216090 -0.172961
v -0.090800 0.087150 -0.038354
v 0.015794 0.160992 -0.225236
v 0.011201 0.149400 -0.234445
v 0.023764 0.145407 -0.222889
v 0.024724 0.132083 -0.215196
v 0.039190 0.150533 -0.211315
v 0.042785 0.214479 -0.174186
v 0.022848 0.217023 -0.174730
v 0.064462 0.230089 -0.144903
v 0.062465 0.194812 -0.142369
v 0.018866 0.220427 -0.152029
v 0.034862 0.212178 -0.128137
v 0.061632 0.249783 -0.154403
v 0.034522 0.190558 -0.201353
v 0.056308 0.158924 -0.189462
v 0.064389 0.166131 -0.169761
v 0.043823 0.135373 -0.199320
v 0.023791 0.111050 -0.190031
v 0.051752 0.124514 -0.171406
v 0.054797 0.189465 -0.124892
v 0.064962 0.145380 -0.141928
v 0.058836 0.159964 -0.109805
v 0.076821 0.102276 -0.122325
v 0.046658 0.040202 -0.173831
v 0.072830 0.044416 -0.141240
v 0.077596 0.184890 0.051188
v 0.097127 0.039961 -0.025867
v 0.096088 0.095846 -0.020670
v 0.069199 0.170683 -0.014780
v 0.073787 0.146795 -0.030707
v 0.085500 0.007577 -0.082719
v 0.085658 0.172602 0.013475
v 0.090250 0.142642 -0.009628
v 0.079479 0.028122 -0.138811
v 0.074086 0.006068 -0.138522
v 0.091711 0.036463 -0.093929
v 0.060926 0.023052 -0.175657
v 0.047106 0.000162 -0.170568
v 0.030285 0.013560 -0.182473
v 0.015115 0.017063 -0.180587
v 0.075809 0.175311 0.082293
v 0.077989 0.120862 0.115704
v 0.086984 0.009475 -0.019696
v 0.068018 0.025860 0.119824
v 0.094033 0.018619 0.056255
v 0.103376 0.054875 0.055175
v 0.103855 0.106736 0.055682
v 0.098051 0.156598 0.048833
v 0.027585 -0.006366 -0.137168
v 0.074674 0.000564 -0.007262
v 0.075276 0.002862 0.057419
v 0.047238 0.001185 0.115516
v 0.077954 0.006121 -0.039708
v 0.034229 0.000827 -0.074367
v 0.090800 0.087150 -0.038354
vn -0.0000 0.0853 -0.9964
vn -0.0000 0.5195 -0.8544
vn -0.0000 -0.5558 -0.8313
vn -0.0000 -0.7576 -0.6527
vn -0.0000 0.6783 -0.7348
vn -0.0000 0.9993 0.0386
vn -0.0000 0.8885 0.4589
vn -0.0000 -0.4836 -0.8753
vn -0.0000 0.9668 0.2556
vn -0.0000 0.6284 0.7779
vn -0.0000 0.9425 0.3342
vn -0.0000 0.9939 -0.1103
vn -0.0000 0.1877 0.9822
vn -0.0000 -0.5774 -0.8164
vn -0.0000 -0.1405 -0.9901
vn -0.0000 -0.9338 -0.3579
vn -0.0000 -0.7377 0.6751
vn -0.0000 -0.9999 -0.0121
vn -0.0000 -0.2012 0.9796
vn -0.0000 -0.9993 0.0368
vn -0.0000 -0.9982 0.0602
vn -0.4299 0.4034 -0.8078
vn -0.4292 0.0011 -0.9032
vn -0.6214 -0.1375 -0.7713
vn -0.4745 -0.5713 -0.6697
vn -0.6941 -0.0324 -0.7192
vn -0.5350 0.4129 -0.7371
vn 0.0524 0.8649 -0.4992
vn -0.9182 0.2450 0.3112
vn -0.9956 0.0814 0.0473
vn 0.2502 0.9610 0.1182
vn -0.1268 0.6978 0.7049
vn -0.4737 0.8769 -0.0812
vn -0.5421 0.4792 -0.6902
vn -0.8750 0.0274 -0.4834
vn -0.9581 0.0687 -0.2781
vn -0.7277 -0.4435 -0.5232
vn -0.4359 -0.4127 -0.7998
vn -0.8439 -0.1996 -0.4981
vn -0.7334 0.2976 0.6112
vn -0.9934 0.0641 -0.0956
vn -0.8512 0.4871 0.1954
vn -0.9533 0.1690 -0.2504
vn -0.4860 0.1386 -0.8629
vn -0.8696 0.1819 -0.4590
vn -0.5240 0.8492 0.0660
vn -0.9839 -0.1565 -0.0866
vn -0.9545 0.1438 -0.2614
vn -0.5479 0.7310 -0.4068
vn -0.7910 0.4741 -0.3866
vn -0.6769 -0.7343 -0.0504
vn -0.6947 0.6730 -0.2539
vn -0.8841 0.2870 -0.3687
vn -0.9353 0.0316 -0.3526
vn -0.6912 -0.6909 -0.2118
vn -0.9824 -0.0501 -0.1799
vn -0.6258 0.0074 -0.7800
vn -0.2872 -0.7951 -0.5342
vn 0.0199 -0.2654 -0.9639
vn -0.0599 -0.4318 -0.9000
vn -0.5777 0.6560 0.4857
vn -0.6958 0.1981 0.6904
vn -0.7880 -0.6014 -0.1320
vn -0.6916 -0.3291 0.6429
vn -0.8442 -0.5040 0.1828
vn -0.9779 -0.1127 0.1763
vn -0.9875 0.0626 0.1450
vn -0.9399 0.3275 0.0966
vn 0.0372 -0.9993 0.0095
vn -0.3043 -0.9523 -0.0240
vn -0.4168 -0.9016 0.1154
vn -0.4000 -0.8191 0.4112
vn -0.5011 -0.8636 -0.0552
vn -0.0589 -0.9979 0.0268
vn -0.0000 0.9622 -0.2725
vn -0.9588 0.1803 -0.2195
vn 0.4299 0.4034 -0.8078
vn 0.4292 0.0011 -0.9032
vn 0.6214 -0.1375 -0.7713
vn 0.4745 -0.5713 -0.6697
vn 0.6941 -0.0324 -0.7192
vn 0.5350 0.4129 -0.7371
vn -0.0524 0.8649 -0.4992
vn 0.9182 0.2450 0.3112
vn 0.9956 0.0814 0.0473
vn -0.2502 0.9610 0.1182
vn 0.1268 0.6978 0.7049
vn 0.4737 0.8769 -0.0812
vn 0.5421 0.4792 -0.6902
vn 0.8750 0.0274 -0.4834
vn 0.9581 0.0687 -0.2781
vn 0.7277 -0.4435 -0.5232
vn 0.4359 -0.4127 -0.7998
vn 0.8439 -0.1996 -0.4981
vn 0.7334 0.2976 0.6112
vn 0.9934 0.0641 -0.0956
vn 0.8512 0.4871 0.1954
vn 0.9533 0.1690 -0.2504
vn 0.4860 0.1386 -0.8629
vn 0.8696 0.1819 -0.4590
vn 0.5240 0.8492 0.0660
vn 0.9839 -0.1565 -0.0866
vn 0.9545 0.1438 -0.2614
vn 0.5479 0.7310 -0.4068
vn 0.7910 0.4741 -0.3866
vn 0.6769 -0.7343 -0.0504
vn 0.6947 0.6730 -0.2539
vn 0.8841 0.2870 -0.3687
vn 0.9353 0.0316 -0.3526
vn 0.6912 -0.6909 -0.2118
vn 0.9824 -0.0501 -0.1799
vn 0.6258 0.0074 -0.7800
vn 0.2872 -0.7951 -0.5342
vn -0.0199 -0.2654 -0.9639
vn 0.0599 -0.4318 -0.9000
vn 0.5777 0.6560 0.4857
vn 0.6958 0.1981 0.6904
vn 0.7880 -0.6014 -0.1320
vn 0.6916 -0.3291 0.6429
vn 0.8442 -0.5040 0.1828
vn 0.9779 -0.1127 0.1763
vn 0.9875 0.0626 0.1450
vn 0.9399 0.3275 0.0966
vn -0.0372 -0.9993 0.0095
vn 0.3043 -0.9523 -0.0240
vn 0.4168 -0.9016 0.1154
vn 0.4000 -0.8191 0.4112
vn 0.5011 -0.8636 -0.0552
vn 0.0589 -0.9979 0.0268
vn 0.9588 0.1803 -0.2195
vt 0.587556 0.125900
vt 0.564453 0.170357
vt 0.564453 0.125485
vt 0.620994 0.126033
vt 0.608409 0.159975
vt 0.628637 0.084669
vt 0.564453 0.105829
vt 0.663640 0.211987
vt 0.708685 0.152798
vt 0.680857 0.093051
vt 0.752030 0.056184
vt 0.651433 0.014416
vt 0.564453 0.052461
vt 0.564453 0.004661
vt 0.659436 0.138691
vt 0.795476 0.346100
vt 0.773701 0.399669
vt 0.699859 0.295190
vt 0.759097 0.173061
vt 0.813446 0.257377
vt 0.866750 0.250098
vt 0.892747 0.329176
vt 0.639478 0.308970
vt 0.623506 0.380527
vt 0.564453 0.235510
vt 0.564453 0.613281
vt 0.564453 0.471784
vt 0.665523 0.459173
vt 0.834912 0.125046
vt 0.730441 0.515164
vt 0.915911 0.175785
vt 0.471972 0.347290
vt 0.308957 0.285628
vt 0.443743 0.221422
vt 0.234438 0.162728
vt 0.203059 0.248787
vt 0.439424 0.119445
vt 0.500799 0.070810
vt 0.546875 0.005859
vt 0.546875 0.106205
vt 0.159654 0.553137
vt 0.234624 0.561403
vt 0.181606 0.613446
vt 0.179343 0.321727
vt 0.546875 0.210792
vt 0.490277 0.136799
vt 0.546875 0.368483
vt 0.489349 0.226842
vt 0.776401 0.656724
vt 0.919922 0.671341
vt 0.782440 0.716461
vt 0.166516 0.742310
vt 0.005859 0.982422
vt 0.005859 0.781497
vt 0.154383 0.683304
vt 0.267804 0.797363
vt 0.306908 0.982422
vt 0.472304 0.837324
vt 0.005859 0.390135
vt 0.005859 0.622514
vt 0.546875 0.736418
vt 0.493443 0.709823
vt 0.209560 0.508106
vt 0.350107 0.484817
vt 0.332129 0.528479
vt 0.457349 0.516847
vt 0.414088 0.689374
vt 0.217777 0.674294
vt 0.309663 0.683284
vt 0.919922 0.433055
vt 0.869135 0.477291
vt 0.833195 0.415799
vt 0.393470 0.005859
vt 0.488133 0.038687
vt 0.919922 0.461599
vt 0.856904 0.592914
vt 0.481846 0.005859
vt 0.250532 0.074187
vt 0.783522 0.474799
vt 0.781332 0.835544
vt 0.919922 0.921681
vt 0.546875 0.580322
vt 0.546875 0.489438
vt 0.523897 0.541728
vt 0.476822 0.982422
vt 0.546875 0.871196
vt 0.546875 0.982422
vt 0.832953 0.942506
vt 0.919922 0.996094
vt 0.762509 0.577537
vt 0.908848 0.405417
vt 0.564453 0.303973
vt 0.564453 0.373759
vt -0.412444 0.125900
vt -0.435547 0.170357
vt -0.391591 0.159975
vt -0.379006 0.126033
vt -0.371363 0.084669
vt -0.435547 0.105829
vt -0.435547 0.125485
vt -0.336360 0.211987
vt -0.435547 0.235510
vt -0.291315 0.152798
vt -0.247970 0.056184
vt -0.319143 0.093051
vt -0.348567 0.014416
vt -0.435547 0.004661
vt -0.435547 0.052461
vt -0.340564 0.138691
vt -0.204524 0.346100
vt -0.300141 0.295190
vt -0.226299 0.399669
vt -0.186554 0.257377
vt -0.240903 0.173061
vt -0.133250 0.250098
vt -0.107253 0.329176
vt -0.360522 0.308970
vt -0.376494 0.380527
vt -0.435547 0.613281
vt -0.334477 0.459173
vt -0.435547 0.471784
vt -0.165088 0.125046
vt -0.269559 0.515164
vt -0.247915 0.613281
vt -0.528028 0.347290
vt -0.556257 0.221422
vt -0.691043 0.285628
vt -0.765562 0.162728
vt -0.796941 0.248787
vt -0.560576 0.119445
vt -0.749468 0.074187
vt -0.499201 0.070810
vt -0.453125 0.005859
vt -0.511867 0.038687
vt -0.840346 0.553137
vt -0.765376 0.561403
vt -0.790440 0.508106
vt -0.820657 0.321727
vt -0.453125 0.210792
vt -0.509723 0.136799
vt -0.510651 0.226842
vt -0.453125 0.106205
vt -0.223599 0.656724
vt -0.217560 0.716461
vt -0.080078 0.671341
vt -0.833484 0.742310
vt -0.994141 0.982422
vt -0.732196 0.797363
vt -0.845617 0.683304
vt -0.994141 0.781497
vt -0.693092 0.982422
vt -0.527696 0.837324
vt -0.994141 0.390135
vt -0.994141 0.622514
vt -0.453125 0.736418
vt -0.506557 0.709823
vt -0.649893 0.484817
vt -0.667871 0.528479
vt -0.542651 0.516847
vt -0.453125 0.368483
vt -0.818394 0.613446
vt -0.585912 0.689374
vt -0.782223 0.674294
vt -0.690337 0.683284
vt -0.080078 0.433055
vt -0.130865 0.477291
vt -0.080078 0.461599
vt -0.606530 0.005859
vt -0.143096 0.592914
vt -0.518154 0.005859
vt -0.753254 0.005859
vt -0.166805 0.415799
vt -0.216478 0.474799
vt -0.237491 0.577537
vt -0.218668 0.835544
vt -0.080078 0.921681
vt -0.453125 0.580322
vt -0.476103 0.541728
vt -0.453125 0.489438
vt -0.523178 0.982422
vt -0.453125 0.982422
vt -0.453125 0.871196
vt -0.167047 0.942506
vt -0.080078 0.996094
vt -0.091152 0.405417
vt -0.435547 0.303973
vt -0.435547 0.373759
vt 0.752085 0.613281
vt 0.246746 0.005859
vt -0.084089 0.175785
s 1
usemtl CatLoafGrey256_M
f 23/1/23 2/2/2 1/3/1
f 23/1/23 24/4/24 22/5/22
f 24/4/24 23/1/23 25/6/25
f 23/1/23 3/7/3 25/6/25
f 1/3/1 3/7/3 23/1/23
f 34/8/34 2/2/2 22/5/22
f 35/9/35 37/10/37 39/11/39
f 38/12/38 4/13/4 8/14/8
f 24/4/24 26/15/26 22/5/22
f 29/16/29 33/17/33 27/18/27
f 27/18/27 36/19/36 30/20/30
f 40/21/40 32/22/32 29/16/29
f 28/23/28 33/17/33 31/24/31
f 28/23/28 27/18/27 33/17/33
f 30/20/30 40/21/40 29/16/29
f 32/22/32 33/17/33 29/16/29
f 25/6/25 26/15/26 24/4/24
f 28/23/28 5/25/5 34/8/34
f 34/8/34 27/18/27 28/23/28
f 26/15/26 34/8/34 22/5/22
f 34/8/34 26/15/26 35/9/35
f 36/19/36 34/8/34 35/9/35
f 38/12/38 37/10/37 25/6/25
f 25/6/25 4/13/4 38/12/38
f 26/15/26 37/10/37 35/9/35
f 37/10/37 38/12/38 39/11/39
f 9/26/9 7/27/7 32/28/32
f 36/19/36 41/29/41 30/20/30
f 35/9/35 39/11/39 36/19/36
f 41/29/41 36/19/36 39/11/39
f 40/30/40 9/26/9 32/28/32
f 40/21/40 41/29/41 42/31/42
f 56/32/56 43/33/43 45/34/45
f 39/35/39 43/33/43 41/36/41
f 39/35/39 44/37/44 45/34/45
f 59/38/59 16/39/16 58/40/58
f 49/41/49 53/42/53 52/43/52
f 42/44/42 41/36/41 43/33/43
f 55/45/55 57/46/57 58/40/58
f 56/32/56 55/45/55 51/47/51
f 45/34/45 57/46/57 54/48/54
f 56/32/56 45/34/45 54/48/54
f 58/40/58 57/46/57 59/38/59
f 73/49/73 18/50/18 70/51/70
f 61/52/61 10/53/10 11/54/11
f 11/54/11 46/55/46 61/52/61
f 62/56/62 13/57/13 10/53/10
f 64/58/64 13/57/13 62/56/62
f 9/59/9 49/41/49 12/60/12
f 71/61/71 64/58/64 65/62/65
f 50/63/50 9/59/9 42/44/42
f 50/63/50 42/44/42 76/64/76
f 43/33/43 76/64/76 42/44/42
f 48/65/48 76/64/76 47/66/47
f 47/66/47 56/32/56 51/47/51
f 46/55/46 49/41/49 52/43/52
f 49/41/49 46/55/46 12/60/12
f 47/66/47 65/62/65 66/67/66
f 66/67/66 48/65/48 47/66/47
f 62/56/62 66/67/66 64/58/64
f 46/55/46 52/43/52 68/68/68
f 67/69/67 53/42/53 48/65/48
f 53/42/53 68/68/68 52/43/52
f 68/68/68 61/52/61 46/55/46
f 68/68/68 62/56/62 61/52/61
f 44/37/44 59/38/59 57/46/57
f 16/70/16 69/71/69 58/72/58
f 15/73/15 60/74/60 44/37/44
f 21/75/21 74/76/74 69/71/69
f 60/74/60 14/77/14 16/39/16
f 38/78/38 15/73/15 44/37/44
f 58/72/58 69/71/69 55/79/55
f 74/76/74 55/79/55 69/71/69
f 71/80/71 18/50/18 20/81/20
f 65/62/65 70/82/70 71/61/71
f 47/66/47 73/83/73 63/84/63
f 73/83/73 47/66/47 51/47/51
f 63/84/63 73/83/73 70/82/70
f 19/85/19 72/86/72 17/87/17
f 71/80/71 20/81/20 72/88/72
f 66/67/66 65/62/65 64/58/64
f 72/86/72 19/85/19 64/58/64
f 72/88/72 20/81/20 17/89/17
f 51/90/51 74/76/74 73/49/73
f 74/76/74 21/75/21 18/50/18
f 73/49/73 74/76/74 18/50/18
f 33/17/33 32/22/32 31/91/31
f 3/7/3 4/13/4 25/6/25
f 75/92/75 31/24/31 6/93/6
f 30/20/30 29/16/29 27/18/27
f 31/24/31 7/27/7 6/93/6
f 48/65/48 50/63/50 76/64/76
f 76/64/76 56/32/56 47/66/47
f 78/94/78 2/95/2 77/96/77
f 78/94/78 77/96/77 79/97/79
f 79/97/79 80/98/80 78/94/78
f 78/94/78 80/98/80 3/99/3
f 1/100/1 78/94/78 3/99/3
f 89/101/89 2/95/2 5/102/5
f 90/103/90 94/104/94 92/105/92
f 93/106/93 8/107/8 4/108/4
f 79/97/79 77/96/77 81/109/81
f 84/110/84 82/111/82 88/112/88
f 82/111/82 85/113/85 91/114/91
f 95/115/95 84/110/84 87/116/87
f 83/117/83 86/118/86 88/112/88
f 83/117/83 88/112/88 82/111/82
f 85/113/85 84/110/84 95/115/95
f 87/116/87 84/110/84 88/112/88
f 80/98/80 81/109/81 92/105/92
f 5/102/5 83/117/83 89/101/89
f 89/101/89 83/117/83 82/111/82
f 81/109/81 77/96/77 89/101/89
f 89/101/89 90/103/90 81/109/81
f 89/101/89 91/114/91 90/103/90
f 93/106/93 80/98/80 92/105/92
f 80/98/80 93/106/93 4/108/4
f 81/109/81 90/103/90 92/105/92
f 92/105/92 94/104/94 93/106/93
f 9/119/9 87/120/87 7/121/7
f 91/114/91 85/113/85 96/122/96
f 90/103/90 91/114/91 94/104/94
f 96/122/96 94/104/94 91/114/91
f 95/123/95 9/119/9 97/124/97
f 95/115/95 96/122/96 85/113/85
f 111/125/111 100/126/100 98/127/98
f 98/127/98 94/128/94 96/129/96
f 94/128/94 99/130/99 93/131/93
f 114/132/114 16/133/16 115/134/115
f 104/135/104 108/136/108 105/137/105
f 97/138/97 98/127/98 96/129/96
f 110/139/110 112/140/112 109/141/109
f 111/125/111 110/139/110 109/141/109
f 112/140/112 100/126/100 109/141/109
f 111/125/111 109/141/109 100/126/100
f 113/142/113 114/132/114 112/140/112
f 128/143/128 125/144/125 18/145/18
f 116/146/116 10/147/10 117/148/117
f 101/149/101 11/150/11 116/146/116
f 117/148/117 10/147/10 13/151/13
f 13/151/13 119/152/119 117/148/117
f 9/153/9 12/154/12 104/135/104
f 119/152/119 126/155/126 120/156/120
f 9/153/9 105/137/105 97/138/97
f 105/137/105 130/157/130 97/138/97
f 98/127/98 97/138/97 130/157/130
f 103/158/103 102/159/102 130/157/130
f 102/159/102 106/160/106 111/125/111
f 101/149/101 107/161/107 104/135/104
f 104/135/104 12/154/12 101/149/101
f 120/156/120 102/159/102 121/162/121
f 103/158/103 121/162/121 102/159/102
f 121/162/121 117/148/117 119/152/119
f 101/149/101 123/163/123 107/161/107
f 108/136/108 122/164/122 103/158/103
f 108/136/108 107/161/107 123/163/123
f 123/163/123 101/149/101 116/146/116
f 117/148/117 123/163/123 116/146/116
f 99/130/99 114/132/114 115/134/115
f 16/165/16 124/166/124 21/167/21
f 115/134/115 15/168/15 99/130/99
f 21/167/21 124/166/124 129/169/129
f 115/134/115 16/133/16 14/170/14
f 93/131/93 15/168/15 8/171/8
f 113/172/113 110/173/110 124/166/124
f 129/169/129 110/173/110 106/174/106
f 18/145/18 126/175/126 20/176/20
f 120/156/120 125/177/125 118/178/118
f 102/159/102 118/178/118 128/179/128
f 128/179/128 106/160/106 102/159/102
f 118/178/118 125/177/125 128/179/128
f 19/180/19 17/181/17 127/182/127
f 126/175/126 127/183/127 20/176/20
f 121/162/121 119/152/119 120/156/120
f 127/182/127 119/152/119 19/180/19
f 127/183/127 17/184/17 20/176/20
f 106/174/106 128/143/128 129/169/129
f 129/169/129 18/145/18 21/167/21
f 128/143/128 18/145/18 129/169/129
f 88/112/88 86/185/86 87/116/87
f 3/99/3 80/98/80 4/108/4
f 75/186/75 86/118/86 83/117/83
f 85/113/85 82/111/82 84/110/84
f 7/121/7 86/118/86 6/187/6
f 105/137/105 103/158/103 130/157/130
f 111/125/111 130/157/130 102/159/102
f 23/1/23 22/5/22 2/2/2
f 34/8/34 5/25/5 2/2/2
f 25/6/25 37/10/37 26/15/26
f 28/23/28 75/92/75 5/25/5
f 36/19/36 27/18/27 34/8/34
f 40/30/40 42/188/42 9/26/9
f 40/21/40 30/20/30 41/29/41
f 39/35/39 45/34/45 43/33/43
f 39/35/39 38/78/38 44/37/44
f 59/38/59 60/74/60 16/39/16
f 49/41/49 50/63/50 53/42/53
f 55/45/55 54/48/54 57/46/57
f 56/32/56 54/48/54 55/45/55
f 45/34/45 44/37/44 57/46/57
f 61/52/61 62/56/62 10/53/10
f 11/54/11 12/60/12 46/55/46
f 64/58/64 19/85/19 13/57/13
f 71/61/71 72/86/72 64/58/64
f 50/63/50 49/41/49 9/59/9
f 47/66/47 63/84/63 65/62/65
f 66/67/66 67/69/67 48/65/48
f 62/56/62 67/69/67 66/67/66
f 67/69/67 68/68/68 53/42/53
f 68/68/68 67/69/67 62/56/62
f 44/37/44 60/74/60 59/38/59
f 16/70/16 21/75/21 69/71/69
f 15/73/15 14/77/14 60/74/60
f 38/78/38 8/189/8 15/73/15
f 74/76/74 51/90/51 55/79/55
f 71/80/71 70/51/70 18/50/18
f 65/62/65 63/84/63 70/82/70
f 75/92/75 28/23/28 31/24/31
f 31/24/31 32/28/32 7/27/7
f 48/65/48 53/42/53 50/63/50
f 76/64/76 43/33/43 56/32/56
f 78/94/78 1/100/1 2/95/2
f 89/101/89 77/96/77 2/95/2
f 80/98/80 79/97/79 81/109/81
f 5/102/5 75/186/75 83/117/83
f 89/101/89 82/111/82 91/114/91
f 95/123/95 87/120/87 9/119/9
f 95/115/95 97/190/97 96/122/96
f 98/127/98 100/126/100 94/128/94
f 94/128/94 100/126/100 99/130/99
f 114/132/114 113/142/113 16/133/16
f 104/135/104 107/161/107 108/136/108
f 110/139/110 113/142/113 112/140/112
f 111/125/111 106/160/106 110/139/110
f 112/140/112 99/130/99 100/126/100
f 116/146/116 11/150/11 10/147/10
f 101/149/101 12/154/12 11/150/11
f 13/151/13 19/180/19 119/152/119
f 119/152/119 127/182/127 126/155/126
f 9/153/9 104/135/104 105/137/105
f 120/156/120 118/178/118 102/159/102
f 103/158/103 122/164/122 121/162/121
f 121/162/121 122/164/122 117/148/117
f 108/136/108 123/163/123 122/164/122
f 117/148/117 122/164/122 123/163/123
f 99/130/99 112/140/112 114/132/114
f 16/165/16 113/172/113 124/166/124
f 115/134/115 14/170/14 15/168/15
f 93/131/93 99/130/99 15/168/15
f 129/169/129 124/166/124 110/173/110
f 18/145/18 125/144/125 126/175/126
f 120/156/120 126/155/126 125/177/125
f 75/186/75 6/187/6 86/118/86
f 7/121/7 87/120/87 86/118/86
f 105/137/105 108/136/108 103/158/103
f 111/125/111 98/127/98 130/157/130
