# Blender v3.4.1 OBJ File: 'Forest_Nature_Pack_Export.blend'
# www.blender.org
mtllib Bush_3_C_Color2.mtl
o Bush_3_C_Color2
v 0.000000 1.123844 0.000000
v -0.707763 0.752814 0.473067
v 0.000000 -0.026809 0.000000
v -0.473067 0.752814 0.707763
v -0.165956 0.752814 0.834973
v 0.165956 0.752814 0.834973
v 0.473067 0.752814 0.707763
v 0.707763 0.752814 0.473067
v 0.834973 0.752814 0.165956
v 0.834973 0.752814 -0.165956
v 0.707763 0.752814 -0.473067
v 0.473066 0.752814 -0.707763
v 0.165956 0.752814 -0.834973
v -0.165956 0.752814 -0.834973
v -0.473067 0.752814 -0.707763
v -0.834973 0.752814 0.165956
v -0.707763 0.752814 -0.473066
v -0.834973 0.752814 -0.165956
v -0.617001 0.968011 -0.132365
v -0.354801 1.085672 -0.146963
v -0.529882 0.968011 -0.342690
v -0.146963 1.085672 -0.354801
v -0.342690 0.968011 -0.529882
v -0.132365 0.968011 -0.617001
v 0.146963 1.085672 -0.354801
v 0.132365 0.968011 -0.617001
v 0.342690 0.968011 -0.529882
v 0.354801 1.085672 -0.146963
v 0.529882 0.968011 -0.342690
v 0.617001 0.968011 -0.132365
v 0.354801 1.085672 0.146963
v 0.617001 0.968011 0.132365
v 0.529882 0.968011 0.342690
v 0.146963 1.085672 0.354801
v 0.342690 0.968011 0.529882
v 0.132365 0.968011 0.617001
v -0.146963 1.085672 0.354801
v -0.132365 0.968011 0.617001
v -0.342690 0.968011 0.529882
v -0.354801 1.085672 0.146963
v -0.529882 0.968011 0.342690
v -0.617001 0.968011 0.132365
v -1.038754 0.115801 -0.206621
v -0.810665 -0.002255 -0.161251
v -0.810665 -0.002255 0.161251
v -1.038754 0.115801 0.206621
v -0.206621 0.115801 -1.038754
v -0.161251 -0.002255 -0.810665
v -0.459205 -0.002255 -0.687248
v -0.588407 0.115801 -0.880613
v 0.206621 0.115801 -1.038754
v 0.161251 -0.002255 -0.810665
v 0.588407 0.115801 -0.880613
v 0.459205 -0.002255 -0.687249
v 0.880613 0.115801 -0.588407
v 0.687248 -0.002255 -0.459205
v 1.038754 0.115801 -0.206621
v 0.810665 -0.002255 -0.161251
v 1.038754 0.115801 0.206621
v 0.810665 -0.002255 0.161251
v 0.880613 0.115801 0.588407
v 0.687248 -0.002255 0.459205
v 0.588407 0.115801 0.880613
v 0.459205 -0.002255 0.687248
v 0.206621 0.115801 1.038754
v 0.161251 -0.002255 0.810665
v -0.206621 0.115801 1.038754
v -0.161251 -0.002255 0.810665
v -0.588407 0.115801 0.880613
v -0.459205 -0.002255 0.687248
v -0.880613 0.115801 0.588407
v -0.687248 -0.002255 0.459205
v -0.687248 -0.002255 -0.459205
v -0.880613 0.115801 -0.588407
v 1.245023 0.350923 -0.247651
v 1.216721 0.262565 -0.242021
v 1.138397 0.568960 -0.226423
v 1.203750 0.486921 -0.239441
v 1.055480 0.350923 -0.705249
v 1.031486 0.262565 -0.689217
v 0.965073 0.568960 -0.644863
v 1.020490 0.486921 -0.681869
v 0.705249 0.350923 -1.055480
v 0.689217 0.262565 -1.031486
v 0.644863 0.568961 -0.965073
v 0.681870 0.486921 -1.020490
v 0.242021 0.262565 -1.216721
v 0.247651 0.350923 -1.245023
v 0.226423 0.568961 -1.138397
v 0.239441 0.486921 -1.203750
v -0.247651 0.350923 -1.245023
v -0.242021 0.262565 -1.216721
v -0.226423 0.568961 -1.138397
v -0.239441 0.486921 -1.203750
v -0.681870 0.486921 -1.020490
v -0.644863 0.568960 -0.965073
v -0.689217 0.262565 -1.031486
v -0.705249 0.350923 -1.055480
v -1.216721 0.262565 -0.242021
v -1.245024 0.350923 -0.247650
v -1.203750 0.486921 -0.239441
v -1.138397 0.568960 -0.226423
v -1.203750 0.486921 0.239441
v -1.138397 0.568960 0.226423
v -1.245024 0.350923 0.247651
v -1.216721 0.262565 0.242021
v 1.138397 0.568960 0.226423
v 1.203750 0.486921 0.239441
v 1.245024 0.350923 0.247651
v 1.216721 0.262565 0.242021
v 0.965073 0.568960 0.644864
v 1.020490 0.486921 0.681870
v 1.055480 0.350923 0.705249
v 1.031487 0.262565 0.689217
v 0.644863 0.568960 0.965074
v 0.681870 0.486921 1.020490
v 0.705249 0.350923 1.055480
v 0.689217 0.262565 1.031486
v 0.226423 0.568960 1.138397
v 0.239441 0.486921 1.203750
v 0.247651 0.350923 1.245024
v 0.242021 0.262565 1.216721
v -0.226423 0.568960 1.138397
v -0.239441 0.486921 1.203750
v -0.247651 0.350923 1.245024
v -0.242021 0.262564 1.216721
v -0.644863 0.568960 0.965074
v -0.681870 0.486921 1.020490
v -0.705249 0.350923 1.055480
v -0.689217 0.262564 1.031487
v -0.965074 0.568960 0.644864
v -1.020490 0.486921 0.681870
v -1.055480 0.350923 0.705250
v -1.031486 0.262564 0.689217
v -1.055480 0.350923 -0.705249
v -1.031487 0.262565 -0.689217
v -0.965074 0.568960 -0.644863
v -1.020490 0.486921 -0.681869
vt 0.185935 0.800114
vt 0.156094 0.809316
vt 0.163096 0.809316
vt 0.155202 0.928207
vt 0.163014 0.954059
vt 0.168761 0.954059
vt 0.162408 0.928207
vt 0.185935 0.972780
vt 0.188863 0.968194
vt 0.177598 0.968194
vt 0.176158 0.954059
vt 0.173209 0.928207
vt 0.186304 0.954059
vt 0.185930 0.928207
vt 0.198413 0.968194
vt 0.195029 0.954059
vt 0.198670 0.928207
vt 0.203631 0.954059
vt 0.209455 0.928207
vt 0.200654 0.968194
vt 0.208573 0.954059
vt 0.216672 0.928207
vt 0.210592 0.954059
vt 0.219202 0.928207
vt 0.194273 0.968194
vt 0.208856 0.954059
vt 0.216668 0.928207
vt 0.203109 0.954059
vt 0.209462 0.928207
vt 0.183007 0.968194
vt 0.195712 0.954059
vt 0.198661 0.928207
vt 0.185566 0.954059
vt 0.185940 0.928207
vt 0.173457 0.968194
vt 0.176841 0.954059
vt 0.173200 0.928207
vt 0.168239 0.954059
vt 0.162415 0.928207
vt 0.163297 0.954059
vt 0.155198 0.928207
vt 0.171216 0.968194
vt 0.161278 0.954059
vt 0.152668 0.928207
vt 0.208774 0.809316
vt 0.198295 0.809316
vt 0.227840 0.906120
vt 0.218007 0.906120
vt 0.168578 0.906120
vt 0.153862 0.906120
vt 0.185935 0.838062
vt 0.167383 0.838062
vt 0.170097 0.820431
vt 0.185935 0.820431
vt 0.151656 0.838062
vt 0.167383 0.838062
vt 0.170097 0.820431
vt 0.156670 0.820431
vt 0.137974 0.889494
vt 0.141625 0.889494
vt 0.140105 0.855448
vt 0.136330 0.855448
vt 0.215776 0.809316
vt 0.218235 0.809316
vt 0.144031 0.906120
vt 0.204487 0.838062
vt 0.220214 0.838062
vt 0.215200 0.820431
vt 0.201773 0.820431
vt 0.173575 0.809316
vt 0.163096 0.809316
vt 0.141147 0.838062
vt 0.147698 0.820431
vt 0.141147 0.838062
vt 0.137457 0.838062
vt 0.144548 0.820431
vt 0.147698 0.820431
vt 0.204487 0.838062
vt 0.201773 0.820431
vt 0.173575 0.809316
vt 0.234413 0.838062
vt 0.230723 0.838062
vt 0.224172 0.820431
vt 0.227322 0.820431
vt 0.198295 0.809316
vt 0.208774 0.809316
vt 0.185935 0.838062
vt 0.185935 0.820431
vt 0.231292 0.906120
vt 0.215776 0.809316
vt 0.220214 0.838062
vt 0.215200 0.820431
vt 0.204289 0.889494
vt 0.185935 0.889494
vt 0.185935 0.855448
vt 0.204918 0.855448
vt 0.167581 0.889494
vt 0.166952 0.855448
vt 0.151656 0.838062
vt 0.156670 0.820431
vt 0.152021 0.889494
vt 0.150859 0.855448
vt 0.152021 0.889494
vt 0.141625 0.889494
vt 0.140105 0.855448
vt 0.150859 0.855448
vt 0.185934 0.906120
vt 0.153863 0.906120
vt 0.168577 0.906120
vt 0.185935 0.809316
vt 0.156094 0.809316
vt 0.218008 0.906120
vt 0.227839 0.906120
vt 0.185935 0.809316
vt 0.203293 0.906120
vt 0.153636 0.809316
vt 0.144030 0.906120
vt 0.203292 0.906120
vt 0.140578 0.906120
vt 0.230723 0.838062
vt 0.224172 0.820431
vt 0.167581 0.889494
vt 0.166952 0.855448
vt 0.185935 0.889494
vt 0.185935 0.855448
vt 0.204289 0.889494
vt 0.204918 0.855448
vt 0.219849 0.889494
vt 0.221012 0.855448
vt 0.230245 0.889494
vt 0.231765 0.855448
vt 0.233896 0.889494
vt 0.235541 0.855448
vt 0.230245 0.889494
vt 0.219849 0.889494
vt 0.221011 0.855448
vt 0.231765 0.855448
vt 0.185936 0.906120
vn 0.0000 -1.0000 -0.0000
vn -0.2265 -0.9622 -0.1513
vn -0.1513 -0.9622 -0.2265
vn -0.4979 0.8003 -0.3340
vn -0.4812 0.8141 -0.3250
vn -0.3250 0.8141 -0.4812
vn -0.3340 0.8003 -0.4979
vn -0.0000 1.0000 0.0000
vn 0.1094 0.9582 -0.2642
vn -0.1094 0.9582 -0.2642
vn -0.1104 0.8141 -0.5701
vn -0.1159 0.8003 -0.5883
vn 0.1104 0.8141 -0.5701
vn 0.1159 0.8003 -0.5883
vn 0.2642 0.9582 -0.1094
vn 0.3250 0.8141 -0.4812
vn 0.3340 0.8003 -0.4979
vn 0.4812 0.8141 -0.3250
vn 0.4979 0.8003 -0.3340
vn 0.2642 0.9582 0.1094
vn 0.5701 0.8141 -0.1104
vn 0.5883 0.8003 -0.1159
vn 0.5701 0.8141 0.1104
vn 0.5883 0.8003 0.1159
vn 0.1094 0.9582 0.2642
vn 0.4812 0.8141 0.3250
vn 0.4979 0.8003 0.3340
vn 0.3250 0.8141 0.4812
vn 0.3340 0.8003 0.4979
vn -0.1094 0.9582 0.2642
vn 0.1104 0.8141 0.5701
vn 0.1159 0.8003 0.5883
vn -0.1104 0.8141 0.5701
vn -0.1159 0.8003 0.5883
vn -0.2642 0.9582 0.1094
vn -0.3250 0.8141 0.4812
vn -0.3340 0.8003 0.4979
vn -0.4812 0.8141 0.3250
vn -0.4979 0.8003 0.3340
vn -0.5701 0.8141 0.1104
vn -0.5883 0.8003 0.1159
vn -0.2642 0.9582 -0.1094
vn -0.5701 0.8141 -0.1104
vn -0.5883 0.8003 -0.1159
vn 0.1513 -0.9622 0.2265
vn 0.0531 -0.9622 0.2671
vn 0.6530 0.7461 -0.1299
vn 0.5536 0.7461 -0.3699
vn -0.1299 0.7461 -0.6530
vn -0.3699 0.7461 -0.5536
vn -0.1628 -0.5514 0.8182
vn -0.4635 -0.5514 0.6937
vn -0.3072 -0.8333 0.4597
vn -0.1079 -0.8333 0.5422
vn -0.4635 -0.5514 -0.6937
vn -0.1628 -0.5514 -0.8182
vn -0.1079 -0.8333 -0.5422
vn -0.3072 -0.8333 -0.4597
vn -0.8698 0.4621 -0.1730
vn -0.7374 0.4621 -0.4927
vn -0.8314 -0.0075 -0.5556
vn -0.9808 -0.0075 -0.1951
vn 0.2672 -0.9622 -0.0531
vn 0.2671 -0.9622 0.0531
vn -0.5536 0.7461 -0.3699
vn 0.4635 -0.5514 -0.6937
vn 0.6937 -0.5514 -0.4635
vn 0.4597 -0.8333 -0.3072
vn 0.3072 -0.8333 -0.4597
vn -0.1513 -0.9622 0.2265
vn -0.2265 -0.9622 0.1513
vn -0.6937 -0.5514 -0.4635
vn -0.4597 -0.8333 -0.3072
vn -0.8182 -0.5514 0.1628
vn -0.8182 -0.5514 -0.1628
vn -0.5422 -0.8333 -0.1079
vn -0.5422 -0.8333 0.1079
vn 0.1628 -0.5514 0.8182
vn 0.1079 -0.8333 0.5422
vn -0.0531 -0.9622 -0.2671
vn 0.8182 -0.5514 0.1628
vn 0.6937 -0.5514 0.4635
vn 0.4597 -0.8333 0.3072
vn 0.5422 -0.8333 0.1079
vn 0.1513 -0.9622 -0.2265
vn 0.2265 -0.9622 -0.1513
vn 0.1628 -0.5514 -0.8182
vn 0.1079 -0.8333 -0.5422
vn 0.6530 0.7461 0.1299
vn 0.2265 -0.9622 0.1513
vn 0.4635 -0.5514 0.6937
vn 0.3072 -0.8333 0.4597
vn 0.1730 0.4621 0.8698
vn -0.1730 0.4621 0.8698
vn -0.1951 -0.0075 0.9808
vn 0.1951 -0.0075 0.9808
vn -0.4927 0.4621 0.7374
vn -0.5556 -0.0075 0.8314
vn -0.6937 -0.5514 0.4635
vn -0.4597 -0.8333 0.3072
vn -0.4927 0.4621 -0.7374
vn -0.5556 -0.0075 -0.8314
vn -0.7374 0.4621 0.4927
vn -0.8698 0.4621 0.1730
vn -0.9808 -0.0075 0.1951
vn -0.8314 -0.0075 0.5556
vn 0.1299 0.7461 -0.6530
vn -0.5536 0.7461 0.3699
vn -0.3699 0.7461 0.5536
vn 0.0531 -0.9622 -0.2671
vn -0.2671 -0.9622 0.0531
vn 0.3699 0.7461 0.5536
vn 0.5536 0.7461 0.3699
vn -0.0531 -0.9622 0.2671
vn 0.3699 0.7461 -0.5536
vn -0.2671 -0.9622 -0.0531
vn -0.6530 0.7461 0.1299
vn 0.1299 0.7461 0.6530
vn -0.6530 0.7461 -0.1299
vn 0.8182 -0.5514 -0.1628
vn 0.5422 -0.8333 -0.1079
vn -0.1730 0.4621 -0.8698
vn -0.1951 -0.0075 -0.9808
vn 0.1730 0.4621 -0.8698
vn 0.1951 -0.0075 -0.9808
vn 0.4927 0.4621 -0.7374
vn 0.5556 -0.0075 -0.8314
vn 0.7374 0.4621 -0.4927
vn 0.8314 -0.0075 -0.5556
vn 0.8698 0.4621 -0.1730
vn 0.9808 -0.0075 -0.1951
vn 0.8698 0.4621 0.1730
vn 0.9808 -0.0075 0.1951
vn 0.7374 0.4621 0.4927
vn 0.4927 0.4621 0.7374
vn 0.5556 -0.0075 0.8314
vn 0.8314 -0.0075 0.5556
vn -0.1299 0.7461 0.6530
usemtl forest
s 1
f 3/1/1 73/2/2 49/3/3
f 17/4/4 21/5/5 23/6/6 15/7/7
f 1/8/8 25/9/9 22/10/10
f 15/7/7 23/6/6 24/11/11 14/12/12
f 14/12/12 24/11/11 26/13/13 13/14/14
f 1/8/8 28/15/15 25/9/9
f 13/14/14 26/13/13 27/16/16 12/17/17
f 12/17/17 27/16/16 29/18/18 11/19/19
f 1/8/8 31/20/20 28/15/15
f 11/19/19 29/18/18 30/21/21 10/22/22
f 10/22/22 30/21/21 32/23/23 9/24/24
f 1/8/8 34/25/25 31/20/20
f 9/24/24 32/23/23 33/26/26 8/27/27
f 8/27/27 33/26/26 35/28/28 7/29/29
f 1/8/8 37/30/30 34/25/25
f 7/29/29 35/28/28 36/31/31 6/32/32
f 6/32/32 36/31/31 38/33/33 5/34/34
f 1/8/8 40/35/35 37/30/30
f 5/34/34 38/33/33 39/36/36 4/37/37
f 4/37/37 39/36/36 41/38/38 2/39/39
f 2/39/39 41/38/38 42/40/40 16/41/41
f 1/8/8 22/10/10 20/42/42
f 16/41/41 42/40/40 19/43/43 18/44/44
f 3/1/1 64/45/45 66/46/46
f 77/47/47 81/48/48 11/19/19 10/22/22
f 93/49/49 96/50/50 15/7/7 14/12/12
f 126/51/51 130/52/52 69/53/53 67/54/54
f 97/55/55 92/56/56 47/57/57 50/58/58
f 101/59/59 138/60/60 135/61/61 100/62/62
f 3/1/1 58/63/63 60/64/64
f 96/50/50 137/65/65 17/4/4 15/7/7
f 84/66/66 80/67/67 55/68/68 53/69/69
f 3/1/1 70/70/70 72/71/71
f 136/72/72 97/55/55 50/58/58 74/73/73
f 106/74/74 99/75/75 43/76/76 46/77/77
f 122/78/78 126/51/51 67/54/54 65/79/79
f 3/1/1 49/3/3 48/80/80
f 110/81/81 114/82/82 61/83/83 59/84/84
f 3/1/1 54/85/85 56/86/86
f 92/56/56 87/87/87 51/88/88 47/57/57
f 87/87/87 84/66/66 53/69/69 51/88/88
f 107/89/89 77/47/47 10/22/22 9/24/24
f 3/1/1 62/90/90 64/45/45
f 3/1/1 60/64/64 62/90/90
f 114/82/82 118/91/91 63/92/92 61/83/83
f 118/91/91 122/78/78 65/79/79 63/92/92
f 120/93/93 124/94/94 125/95/95 121/96/96
f 124/94/94 128/97/97 129/98/98 125/95/95
f 130/52/52 134/99/99 71/100/100 69/53/53
f 134/99/99 106/74/74 46/77/77 71/100/100
f 138/60/60 95/101/101 98/102/102 135/61/61
f 1/8/8 20/42/42 40/35/35
f 132/103/103 103/104/104 105/105/105 133/106/106
f 89/107/107 93/49/49 14/12/12 13/14/14
f 131/108/108 127/109/109 4/37/37 2/39/39
f 3/1/1 52/110/110 54/85/85
f 3/1/1 72/71/71 45/111/111
f 115/112/112 111/113/113 8/27/27 7/29/29
f 3/1/1 66/46/46 68/114/114
f 85/115/115 89/107/107 13/14/14 12/17/17
f 3/1/1 56/86/86 58/63/63
f 3/1/1 44/116/116 73/2/2
f 104/117/117 131/108/108 2/39/39 16/41/41
f 119/118/118 115/112/112 7/29/29 6/32/32
f 111/113/113 107/89/89 9/24/24 8/27/27
f 3/1/1 68/114/114 70/70/70
f 81/48/48 85/115/115 12/17/17 11/19/19
f 102/119/119 104/117/117 16/41/41 18/44/44
f 76/120/120 110/81/81 59/84/84 57/121/121
f 3/1/1 48/80/80 52/110/110
f 19/43/43 21/5/5 17/4/4 18/44/44
f 20/42/42 21/5/5 19/43/43
f 20/42/42 22/10/10 23/6/6 21/5/5
f 22/10/10 24/11/11 23/6/6
f 22/10/10 25/9/9 26/13/13 24/11/11
f 25/9/9 27/16/16 26/13/13
f 25/9/9 28/15/15 29/18/18 27/16/16
f 28/15/15 30/21/21 29/18/18
f 28/15/15 31/20/20 32/23/23 30/21/21
f 31/20/20 33/26/26 32/23/23
f 31/20/20 34/25/25 35/28/28 33/26/26
f 34/25/25 36/31/31 35/28/28
f 34/25/25 37/30/30 38/33/33 36/31/31
f 37/30/30 39/36/36 38/33/33
f 37/30/30 40/35/35 41/38/38 39/36/36
f 40/35/35 42/40/40 41/38/38
f 40/35/35 20/42/42 19/43/43 42/40/40
f 137/65/65 102/119/119 18/44/44 17/4/4
f 95/101/101 94/122/122 91/123/123 98/102/102
f 94/122/122 90/124/124 88/125/125 91/123/123
f 90/124/124 86/126/126 83/127/127 88/125/125
f 86/126/126 82/128/128 79/129/129 83/127/127
f 82/128/128 78/130/130 75/131/131 79/129/129
f 78/130/130 108/132/132 109/133/133 75/131/131
f 112/134/134 116/135/135 117/136/136 113/137/137
f 116/135/135 120/93/93 121/96/96 117/136/136
f 123/138/138 119/118/118 6/32/32 5/34/34
f 127/109/109 123/138/138 5/34/34 4/37/37
f 128/97/97 132/103/103 133/106/106 129/98/98
f 108/132/132 112/134/134 113/137/137 109/133/133
f 99/75/75 136/72/72 74/73/73 43/76/76
f 103/104/104 101/59/59 100/62/62 105/105/105
f 44/116/116 45/111/111 46/77/77 43/76/76
f 48/80/80 49/3/3 50/58/58 47/57/57
f 52/110/110 48/80/80 47/57/57 51/88/88
f 54/85/85 52/110/110 51/88/88 53/69/69
f 56/86/86 54/85/85 53/69/69 55/68/68
f 58/63/63 56/86/86 55/68/68 57/121/121
f 60/64/64 58/63/63 57/121/121 59/84/84
f 62/90/90 60/64/64 59/84/84 61/83/83
f 64/45/45 62/90/90 61/83/83 63/92/92
f 66/46/46 64/45/45 63/92/92 65/79/79
f 68/114/114 66/46/46 65/79/79 67/54/54
f 70/70/70 68/114/114 67/54/54 69/53/53
f 72/71/71 70/70/70 69/53/53 71/100/100
f 45/111/111 72/71/71 71/100/100 46/77/77
f 49/3/3 73/2/2 74/73/73 50/58/58
f 73/2/2 44/116/116 43/76/76 74/73/73
f 3/1/1 45/111/111 44/116/116
f 98/102/102 91/123/123 92/56/56 97/55/55
f 88/125/125 83/127/127 84/66/66 87/87/87
f 83/127/127 79/129/129 80/67/67 84/66/66
f 79/129/129 75/131/131 76/120/120 80/67/67
f 75/131/131 109/133/133 110/81/81 76/120/120
f 109/133/133 113/137/137 114/82/82 110/81/81
f 113/137/137 117/136/136 118/91/91 114/82/82
f 117/136/136 121/96/96 122/78/78 118/91/91
f 121/96/96 125/95/95 126/51/51 122/78/78
f 125/95/95 129/98/98 130/52/52 126/51/51
f 129/98/98 133/106/106 134/99/99 130/52/52
f 100/62/62 135/61/61 136/72/72 99/75/75
f 138/60/60 101/59/59 102/119/119 137/65/65
f 91/123/123 88/125/125 87/87/87 92/56/56
f 135/61/61 98/102/102 97/55/55 136/72/72
f 133/106/106 105/105/105 106/74/74 134/99/99
f 105/105/105 100/62/62 99/75/75 106/74/74
f 101/59/59 103/104/104 104/117/117 102/119/119
f 94/122/122 95/101/101 96/50/50 93/49/49
f 90/124/124 94/122/122 93/49/49 89/107/107
f 86/126/126 90/124/124 89/107/107 85/115/115
f 82/128/128 86/126/126 85/115/115 81/48/48
f 78/130/130 82/128/128 81/48/48 77/47/47
f 108/132/132 78/130/130 77/47/47 107/89/89
f 112/134/134 108/132/132 107/89/89 111/113/113
f 116/135/135 112/134/134 111/113/113 115/112/112
f 120/93/93 116/135/135 115/112/112 119/118/118
f 124/94/94 120/93/93 119/118/118 123/138/138
f 128/97/97 124/94/94 123/138/138 127/109/109
f 132/103/103 128/97/97 127/109/109 131/108/108
f 103/104/104 132/103/103 131/108/108 104/117/117
f 95/101/101 138/60/60 137/65/65 96/50/50
f 80/67/67 76/120/120 57/121/121 55/68/68
